{"asset":{"version":"2.0","generator":"THREE.GLTFExporter r175"},"scenes":[{"name":"AuxScene","nodes":[8]}],"scene":0,"nodes":[{"mesh":0},{"mesh":1},{"mesh":2},{"mesh":3},{"matrix":[0.28171584907830577,0,-0.28171584907830577,0,0,-0.398406374501992,0,0,0.28171584907830577,0,0.28171584907830577,0,0,0,0,1],"children":[0,1,2,3]},{"children":[4]},{"matrix":[1,0,0,0,0,1,0,0,0,0,1,0,-45.77882525693424,47.41035856573705,24.931852861720518,1],"children":[5]},{"children":[6]},{"children":[7]}],"bufferViews":[{"buffer":0,"byteOffset":0,"byteLength":7200,"target":34962,"byteStride":12},{"buffer":0,"byteOffset":7200,"byteLength":4800,"target":34962,"byteStride":8},{"buffer":0,"byteOffset":12000,"byteLength":7200,"target":34962,"byteStride":12},{"buffer":0,"byteOffset":19200,"byteLength":11952,"target":34962,"byteStride":12},{"buffer":0,"byteOffset":31152,"byteLength":7968,"target":34962,"byteStride":8},{"buffer":0,"byteOffset":39120,"byteLength":11952,"target":34962,"byteStride":12},{"buffer":0,"byteOffset":51072,"byteLength":71136,"target":34962,"byteStride":12},{"buffer":0,"byteOffset":122208,"byteLength":47424,"target":34962,"byteStride":8},{"buffer":0,"byteOffset":169632,"byteLength":71136,"target":34962,"byteStride":12},{"buffer":0,"byteOffset":240768,"byteLength":17568,"target":34962,"byteStride":12},{"buffer":0,"byteOffset":258336,"byteLength":11712,"target":34962,"byteStride":8},{"buffer":0,"byteOffset":270048,"byteLength":17568,"target":34962,"byteStride":12}],"buffers":[{"byteLength":287616,"uri":"data:application/octet-stream;base64,"}],"accessors":[{"bufferView":0,"componentType":5126,"count":600,"max":[97.96880340576172,67.13089752197266,74.5999984741211],"min":[73.47480010986328,54.795597076416016,-0.6000000238418579],"type":"VEC3"},{"bufferView":1,"componentType":5126,"count":600,"max":[97.96880340576172,67.13089752197266],"min":[54.929100036621094,-73.5999984741211],"type":"VEC2"},{"bufferView":2,"componentType":5126,"count":600,"max":[0.986161470413208,1,1],"min":[-0.995973527431488,-0.9999318718910217,-1],"type":"VEC3"},{"bufferView":3,"componentType":5126,"count":996,"max":[183.6750030517578,237.99000549316406,74.5999984741211],"min":[130.83900451660156,164.7550048828125,-0.6000000238418579],"type":"VEC3"},{"bufferView":4,"componentType":5126,"count":996,"max":[237.99000549316406,237.99000549316406],"min":[130.83900451660156,-73.5999984741211],"type":"VEC2"},{"bufferView":5,"componentType":5126,"count":996,"max":[1,1,1],"min":[-1,-1,-1],"type":"VEC3"},{"bufferView":6,"componentType":5126,"count":5928,"max":[251,238,74.5999984741211],"min":[0,0.27869799733161926,-0.6000000238418579],"type":"VEC3"},{"bufferView":7,"componentType":5126,"count":5928,"max":[251,238],"min":[0,-73.5999984741211],"type":"VEC2"},{"bufferView":8,"componentType":5126,"count":5928,"max":[1,1,1],"min":[-1,-1,-1],"type":"VEC3"},{"bufferView":9,"componentType":5126,"count":1464,"max":[104.30241394042969,36.98109817504883,74.5999984741211],"min":[76.6063003540039,0,-0.6000000238418579],"type":"VEC3"},{"bufferView":10,"componentType":5126,"count":1464,"max":[104.30241394042969,36.98109817504883],"min":[0,-73.5999984741211],"type":"VEC2"},{"bufferView":11,"componentType":5126,"count":1464,"max":[0.9999513030052185,0.9931321740150452,1],"min":[-0.999018669128418,-0.9868875741958618,-1],"type":"VEC3"}],"materials":[{"pbrMetallicRoughness":{"baseColorFactor":[0.6375968739867731,0.6653872982754769,0.7083757798856457,1],"metallicFactor":1,"roughnessFactor":0.2},"doubleSided":true,"extensions":{"KHR_materials_clearcoat":{"clearcoatFactor":0.1,"clearcoatRoughnessFactor":0}}}],"meshes":[{"primitives":[{"mode":4,"attributes":{"POSITION":0,"TEXCOORD_0":1,"NORMAL":2},"material":0}]},{"primitives":[{"mode":4,"attributes":{"POSITION":3,"TEXCOORD_0":4,"NORMAL":5},"material":0}]},{"primitives":[{"mode":4,"attributes":{"POSITION":6,"TEXCOORD_0":7,"NORMAL":8},"material":0}]},{"primitives":[{"mode":4,"attributes":{"POSITION":9,"TEXCOORD_0":10,"NORMAL":11},"material":0}]}],"extensionsUsed":["KHR_materials_clearcoat"]}