{"asset":{"version":"2.0","generator":"THREE.GLTFExporter r175"},"scenes":[{"name":"AuxScene","nodes":[5]}],"scene":0,"nodes":[{"mesh":0},{"matrix":[0.24724013328200958,0,-0.24724013328200964,0,0,-0.34965034965034963,0,0,0.24724013328200964,0,0.24724013328200958,0,0,0,0,1],"children":[0]},{"children":[1]},{"matrix":[1,0,0,0,0,1,0,0,0,0,1,0,-35.77552226634373,34.926214595357855,34.78656179216234,1],"children":[2]},{"children":[3]},{"children":[4]}],"bufferViews":[{"buffer":0,"byteOffset":0,"byteLength":31104,"target":34962,"byteStride":12},{"buffer":0,"byteOffset":31104,"byteLength":20736,"target":34962,"byteStride":8},{"buffer":0,"byteOffset":51840,"byteLength":31104,"target":34962,"byteStride":12}],"buffers":[{"byteLength":82944,"uri":"data:application/octet-stream;base64,"}],"accessors":[{"bufferView":0,"componentType":5126,"count":2592,"max":[285.39898681640625,199.7790069580078,74.5999984741211],"min":[0,0,-0.6000000238418579],"type":"VEC3"},{"bufferView":1,"componentType":5126,"count":2592,"max":[285.39898681640625,199.7790069580078],"min":[0,-73.5999984741211],"type":"VEC2"},{"bufferView":2,"componentType":5126,"count":2592,"max":[1,1,1],"min":[-1,-0.9992973804473877,-1],"type":"VEC3"}],"materials":[{"pbrMetallicRoughness":{"baseColorFactor":[0.6375968739867731,0.6653872982754769,0.7083757798856457,1],"metallicFactor":1,"roughnessFactor":0.2},"doubleSided":true,"extensions":{"KHR_materials_clearcoat":{"clearcoatFactor":0.1,"clearcoatRoughnessFactor":0}}}],"meshes":[{"primitives":[{"mode":4,"attributes":{"POSITION":0,"TEXCOORD_0":1,"NORMAL":2},"material":0}]}],"extensionsUsed":["KHR_materials_clearcoat"]}